# xmcd
#
# Track frame offsets:
#	150
#	16264
#	32353
#	50135
#	68056
#	82735
#	98681
#	114857
#	130137
#	147115
#	161759
#
# Disc length: 2381 seconds
#
# Revision: 1
# Processed by: cddbd v1.5.1PL0 Copyright (c) Steve Scherf et al.
# Submitted via: CDex 1.50Beta5
#
DISCID=7f094b0b
DTITLE=双葉 - 双葉
DYEAR=1900
DGENRE=
TTITLE0=Rest
TTITLE1=観覧車
TTITLE2=ラバーズ
TTITLE3=二葉
TTITLE4=君と私
TTITLE5=生まれた町
TTITLE6=となり
TTITLE7=どしゃぶり
TTITLE8=ピーターパン
TTITLE9=春のにおい
TTITLE10=サヨナラの前に
EXTD=
EXTT0=
EXTT1=
EXTT2=
EXTT3=
EXTT4=
EXTT5=
EXTT6=
EXTT7=
EXTT8=
EXTT9=
EXTT10=
PLAYORDER=
